<!-- Generated by IcoMoon.io -->
<svg version="1.1" xmlns="http://www.w3.org/2000/svg" width="1024" height="1024" viewBox="0 0 1024 1024">
<title></title>
<g id="icomoon-ignore">
</g>
<path d="M728.699 591.454l-296.153-296.153q38.525-57.786 58.992-124.6t20.466-140.253q0 99.92 37.922 187.806t102.932 152.893 152.893 102.932 187.806 37.922q-73.438 0-140.253 20.466t-124.6 58.992zM887.611 1022.445l-294.951-294.951q-38.525 57.786-59.593 124.6t-21.068 141.454q0-99.92-37.922-187.806t-102.932-152.893-152.893-102.932-187.806-37.922q74.64 0 141.454-21.068t124.6-59.593l-294.951-294.951 67.418-67.418 886.056 886.056-67.418 67.418z"></path>
</svg>
